<?xml version="1.0" encoding="UTF-8" standalone="no"?>
<!DOCTYPE svg PUBLIC "-//W3C//DTD SVG 1.1//EN"
 "http://www.w3.org/Graphics/SVG/1.1/DTD/svg11.dtd">
<!-- Generated by graphviz version 2.47.3 (20210619.1520)
 -->
<!-- Title: dependencies Pages: 1 -->
<svg width="3799pt" height="247pt"
 viewBox="0.00 0.00 3799.00 246.80" xmlns="http://www.w3.org/2000/svg" xmlns:xlink="http://www.w3.org/1999/xlink">
<g id="graph0" class="graph" transform="scale(1 1) rotate(0) translate(4 242.8)">
<title>dependencies</title>
<polygon fill="white" stroke="transparent" points="-4,4 -4,-242.8 3795,-242.8 3795,4 -4,4"/>
<text text-anchor="middle" x="1895.5" y="-8.2" font-family="sans-serif" font-size="14.00">dependencies</text>
<g id="clust1" class="cluster">
<title>cluster_AppModule</title>
<polygon fill="none" stroke="black" stroke-dasharray="1,5" points="8,-32.8 8,-230.8 3783,-230.8 3783,-32.8 8,-32.8"/>
</g>
<g id="clust26" class="cluster">
<title>cluster_AppModule_bootstrap</title>
<polygon fill="none" stroke="black" points="1936,-170.8 1936,-222.8 2060,-222.8 2060,-170.8 1936,-170.8"/>
</g>
<g id="clust27" class="cluster">
<title>cluster_AppModule_providers</title>
<polygon fill="none" stroke="black" points="3623,-40.8 3623,-92.8 3775,-92.8 3775,-40.8 3623,-40.8"/>
</g>
<g id="clust24" class="cluster">
<title>cluster_AppModule_imports</title>
<polygon fill="none" stroke="black" points="3471,-40.8 3471,-92.8 3615,-92.8 3615,-40.8 3471,-40.8"/>
</g>
<g id="clust2" class="cluster">
<title>cluster_AppModule_declarations</title>
<polygon fill="none" stroke="black" points="16,-40.8 16,-92.8 3463,-92.8 3463,-40.8 16,-40.8"/>
</g>
<!-- AboutComponent -->
<g id="node1" class="node">
<title>AboutComponent</title>
<polygon fill="#ffffb3" stroke="black" points="3455.33,-84.8 3338.67,-84.8 3338.67,-48.8 3455.33,-48.8 3455.33,-84.8"/>
<text text-anchor="middle" x="3397" y="-62.6" font-family="Times,serif" font-size="14.00">AboutComponent</text>
</g>
<!-- AppModule -->
<g id="node22" class="node">
<title>AppModule</title>
<polygon fill="#8dd3c7" stroke="black" points="2039.66,-149.8 2036.66,-153.8 2015.66,-153.8 2012.66,-149.8 1956.34,-149.8 1956.34,-113.8 2039.66,-113.8 2039.66,-149.8"/>
<text text-anchor="middle" x="1998" y="-127.6" font-family="Times,serif" font-size="14.00">AppModule</text>
</g>
<!-- AboutComponent&#45;&gt;AppModule -->
<g id="edge1" class="edge">
<title>AboutComponent&#45;&gt;AppModule</title>
<path fill="none" stroke="black" d="M3397,-85.09C3397,-107.01 3397,-140.8 3397,-140.8 3397,-140.8 2049.87,-140.8 2049.87,-140.8"/>
<polygon fill="black" stroke="black" points="2049.87,-137.3 2039.87,-140.8 2049.87,-144.3 2049.87,-137.3"/>
</g>
<!-- ActorDetailsComponent -->
<g id="node2" class="node">
<title>ActorDetailsComponent</title>
<polygon fill="#ffffb3" stroke="black" points="3320.36,-84.8 3167.64,-84.8 3167.64,-48.8 3320.36,-48.8 3320.36,-84.8"/>
<text text-anchor="middle" x="3244" y="-62.6" font-family="Times,serif" font-size="14.00">ActorDetailsComponent</text>
</g>
<!-- ActorDetailsComponent&#45;&gt;AppModule -->
<g id="edge2" class="edge">
<title>ActorDetailsComponent&#45;&gt;AppModule</title>
<path fill="none" stroke="black" d="M3244,-85.08C3244,-106.12 3244,-137.8 3244,-137.8 3244,-137.8 2049.81,-137.8 2049.81,-137.8"/>
<polygon fill="black" stroke="black" points="2049.81,-134.3 2039.81,-137.8 2049.81,-141.3 2049.81,-134.3"/>
</g>
<!-- AppComponent -->
<g id="node3" class="node">
<title>AppComponent</title>
<polygon fill="#ffffb3" stroke="black" points="3149.94,-84.8 3044.06,-84.8 3044.06,-48.8 3149.94,-48.8 3149.94,-84.8"/>
<text text-anchor="middle" x="3097" y="-62.6" font-family="Times,serif" font-size="14.00">AppComponent</text>
</g>
<!-- AppComponent&#45;&gt;AppModule -->
<g id="edge3" class="edge">
<title>AppComponent&#45;&gt;AppModule</title>
<path fill="none" stroke="black" d="M3097,-85.02C3097,-105.17 3097,-134.8 3097,-134.8 3097,-134.8 2049.74,-134.8 2049.74,-134.8"/>
<polygon fill="black" stroke="black" points="2049.74,-131.3 2039.74,-134.8 2049.74,-138.3 2049.74,-131.3"/>
</g>
<!-- AuthenticationComponent -->
<g id="node4" class="node">
<title>AuthenticationComponent</title>
<polygon fill="#ffffb3" stroke="black" points="3026.04,-84.8 2861.96,-84.8 2861.96,-48.8 3026.04,-48.8 3026.04,-84.8"/>
<text text-anchor="middle" x="2944" y="-62.6" font-family="Times,serif" font-size="14.00">AuthenticationComponent</text>
</g>
<!-- AuthenticationComponent&#45;&gt;AppModule -->
<g id="edge4" class="edge">
<title>AuthenticationComponent&#45;&gt;AppModule</title>
<path fill="none" stroke="black" d="M2944,-84.91C2944,-104.14 2944,-131.8 2944,-131.8 2944,-131.8 2049.87,-131.8 2049.87,-131.8"/>
<polygon fill="black" stroke="black" points="2049.87,-128.3 2039.87,-131.8 2049.87,-135.3 2049.87,-128.3"/>
</g>
<!-- BookingComponent -->
<g id="node5" class="node">
<title>BookingComponent</title>
<polygon fill="#ffffb3" stroke="black" points="2843.56,-84.8 2714.44,-84.8 2714.44,-48.8 2843.56,-48.8 2843.56,-84.8"/>
<text text-anchor="middle" x="2779" y="-62.6" font-family="Times,serif" font-size="14.00">BookingComponent</text>
</g>
<!-- BookingComponent&#45;&gt;AppModule -->
<g id="edge5" class="edge">
<title>BookingComponent&#45;&gt;AppModule</title>
<path fill="none" stroke="black" d="M2779,-85.07C2779,-103.36 2779,-128.8 2779,-128.8 2779,-128.8 2049.71,-128.8 2049.71,-128.8"/>
<polygon fill="black" stroke="black" points="2049.71,-125.3 2039.71,-128.8 2049.71,-132.3 2049.71,-125.3"/>
</g>
<!-- FooterComponent -->
<g id="node6" class="node">
<title>FooterComponent</title>
<polygon fill="#ffffb3" stroke="black" points="2695.88,-84.8 2578.12,-84.8 2578.12,-48.8 2695.88,-48.8 2695.88,-84.8"/>
<text text-anchor="middle" x="2637" y="-62.6" font-family="Times,serif" font-size="14.00">FooterComponent</text>
</g>
<!-- FooterComponent&#45;&gt;AppModule -->
<g id="edge6" class="edge">
<title>FooterComponent&#45;&gt;AppModule</title>
<path fill="none" stroke="black" d="M2637,-84.82C2637,-102.17 2637,-125.8 2637,-125.8 2637,-125.8 2049.93,-125.8 2049.93,-125.8"/>
<polygon fill="black" stroke="black" points="2049.93,-122.3 2039.93,-125.8 2049.93,-129.3 2049.93,-122.3"/>
</g>
<!-- ForgetPasswordComponent -->
<g id="node7" class="node">
<title>ForgetPasswordComponent</title>
<polygon fill="#ffffb3" stroke="black" points="2559.54,-84.8 2388.46,-84.8 2388.46,-48.8 2559.54,-48.8 2559.54,-84.8"/>
<text text-anchor="middle" x="2474" y="-62.6" font-family="Times,serif" font-size="14.00">ForgetPasswordComponent</text>
</g>
<!-- ForgetPasswordComponent&#45;&gt;AppModule -->
<g id="edge7" class="edge">
<title>ForgetPasswordComponent&#45;&gt;AppModule</title>
<path fill="none" stroke="black" d="M2474,-84.83C2474,-101.2 2474,-122.8 2474,-122.8 2474,-122.8 2049.82,-122.8 2049.82,-122.8"/>
<polygon fill="black" stroke="black" points="2049.82,-119.3 2039.82,-122.8 2049.82,-126.3 2049.82,-119.3"/>
</g>
<!-- HomeComponent -->
<g id="node8" class="node">
<title>HomeComponent</title>
<polygon fill="#ffffb3" stroke="black" points="2369.55,-84.8 2254.45,-84.8 2254.45,-48.8 2369.55,-48.8 2369.55,-84.8"/>
<text text-anchor="middle" x="2312" y="-62.6" font-family="Times,serif" font-size="14.00">HomeComponent</text>
</g>
<!-- HomeComponent&#45;&gt;AppModule -->
<g id="edge8" class="edge">
<title>HomeComponent&#45;&gt;AppModule</title>
<path fill="none" stroke="black" d="M2312,-85.04C2312,-100.37 2312,-119.8 2312,-119.8 2312,-119.8 2049.7,-119.8 2049.7,-119.8"/>
<polygon fill="black" stroke="black" points="2049.7,-116.3 2039.7,-119.8 2049.7,-123.3 2049.7,-116.3"/>
</g>
<!-- MovieDetailsComponent -->
<g id="node9" class="node">
<title>MovieDetailsComponent</title>
<polygon fill="#ffffb3" stroke="black" points="2235.54,-84.8 2078.46,-84.8 2078.46,-48.8 2235.54,-48.8 2235.54,-84.8"/>
<text text-anchor="middle" x="2157" y="-62.6" font-family="Times,serif" font-size="14.00">MovieDetailsComponent</text>
</g>
<!-- MovieDetailsComponent&#45;&gt;AppModule -->
<g id="edge9" class="edge">
<title>MovieDetailsComponent&#45;&gt;AppModule</title>
<path fill="none" stroke="black" d="M2157,-84.85C2157,-99.17 2157,-116.8 2157,-116.8 2157,-116.8 2049.78,-116.8 2049.78,-116.8"/>
<polygon fill="black" stroke="black" points="2049.78,-113.3 2039.78,-116.8 2049.78,-120.3 2049.78,-113.3"/>
</g>
<!-- NavBarComponent -->
<g id="node10" class="node">
<title>NavBarComponent</title>
<polygon fill="#ffffb3" stroke="black" points="2060.37,-84.8 1935.63,-84.8 1935.63,-48.8 2060.37,-48.8 2060.37,-84.8"/>
<text text-anchor="middle" x="1998" y="-62.6" font-family="Times,serif" font-size="14.00">NavBarComponent</text>
</g>
<!-- NavBarComponent&#45;&gt;AppModule -->
<g id="edge10" class="edge">
<title>NavBarComponent&#45;&gt;AppModule</title>
<path fill="none" stroke="black" d="M1998,-84.91C1998,-84.91 1998,-103.79 1998,-103.79"/>
<polygon fill="black" stroke="black" points="1994.5,-103.79 1998,-113.79 2001.5,-103.79 1994.5,-103.79"/>
</g>
<!-- NotfoundComponent -->
<g id="node11" class="node">
<title>NotfoundComponent</title>
<polygon fill="#ffffb3" stroke="black" points="1917.49,-84.8 1782.51,-84.8 1782.51,-48.8 1917.49,-48.8 1917.49,-84.8"/>
<text text-anchor="middle" x="1850" y="-62.6" font-family="Times,serif" font-size="14.00">NotfoundComponent</text>
</g>
<!-- NotfoundComponent&#45;&gt;AppModule -->
<g id="edge11" class="edge">
<title>NotfoundComponent&#45;&gt;AppModule</title>
<path fill="none" stroke="black" d="M1850,-84.85C1850,-99.17 1850,-116.8 1850,-116.8 1850,-116.8 1945.99,-116.8 1945.99,-116.8"/>
<polygon fill="black" stroke="black" points="1945.99,-120.3 1955.99,-116.8 1945.98,-113.3 1945.99,-120.3"/>
</g>
<!-- ScrollTopBtnComponent -->
<g id="node12" class="node">
<title>ScrollTopBtnComponent</title>
<polygon fill="#ffffb3" stroke="black" points="1764.55,-84.8 1607.45,-84.8 1607.45,-48.8 1764.55,-48.8 1764.55,-84.8"/>
<text text-anchor="middle" x="1686" y="-62.6" font-family="Times,serif" font-size="14.00">ScrollTopBtnComponent</text>
</g>
<!-- ScrollTopBtnComponent&#45;&gt;AppModule -->
<g id="edge12" class="edge">
<title>ScrollTopBtnComponent&#45;&gt;AppModule</title>
<path fill="none" stroke="black" d="M1686,-85.04C1686,-100.37 1686,-119.8 1686,-119.8 1686,-119.8 1946.25,-119.8 1946.25,-119.8"/>
<polygon fill="black" stroke="black" points="1946.25,-123.3 1956.25,-119.8 1946.25,-116.3 1946.25,-123.3"/>
</g>
<!-- SignInComponent -->
<g id="node13" class="node">
<title>SignInComponent</title>
<polygon fill="#ffffb3" stroke="black" points="1589.17,-84.8 1470.83,-84.8 1470.83,-48.8 1589.17,-48.8 1589.17,-84.8"/>
<text text-anchor="middle" x="1530" y="-62.6" font-family="Times,serif" font-size="14.00">SignInComponent</text>
</g>
<!-- SignInComponent&#45;&gt;AppModule -->
<g id="edge13" class="edge">
<title>SignInComponent&#45;&gt;AppModule</title>
<path fill="none" stroke="black" d="M1530,-84.83C1530,-101.2 1530,-122.8 1530,-122.8 1530,-122.8 1946.06,-122.8 1946.06,-122.8"/>
<polygon fill="black" stroke="black" points="1946.06,-126.3 1956.06,-122.8 1946.06,-119.3 1946.06,-126.3"/>
</g>
<!-- SignUpComponent -->
<g id="node14" class="node">
<title>SignUpComponent</title>
<polygon fill="#ffffb3" stroke="black" points="1453.11,-84.8 1328.89,-84.8 1328.89,-48.8 1453.11,-48.8 1453.11,-84.8"/>
<text text-anchor="middle" x="1391" y="-62.6" font-family="Times,serif" font-size="14.00">SignUpComponent</text>
</g>
<!-- SignUpComponent&#45;&gt;AppModule -->
<g id="edge14" class="edge">
<title>SignUpComponent&#45;&gt;AppModule</title>
<path fill="none" stroke="black" d="M1391,-84.82C1391,-102.17 1391,-125.8 1391,-125.8 1391,-125.8 1946.28,-125.8 1946.28,-125.8"/>
<polygon fill="black" stroke="black" points="1946.28,-129.3 1956.28,-125.8 1946.28,-122.3 1946.28,-129.3"/>
</g>
<!-- SmallPlansComponent -->
<g id="node15" class="node">
<title>SmallPlansComponent</title>
<polygon fill="#ffffb3" stroke="black" points="1311.33,-84.8 1166.67,-84.8 1166.67,-48.8 1311.33,-48.8 1311.33,-84.8"/>
<text text-anchor="middle" x="1239" y="-62.6" font-family="Times,serif" font-size="14.00">SmallPlansComponent</text>
</g>
<!-- SmallPlansComponent&#45;&gt;AppModule -->
<g id="edge15" class="edge">
<title>SmallPlansComponent&#45;&gt;AppModule</title>
<path fill="none" stroke="black" d="M1239,-85.07C1239,-103.36 1239,-128.8 1239,-128.8 1239,-128.8 1946.11,-128.8 1946.11,-128.8"/>
<polygon fill="black" stroke="black" points="1946.11,-132.3 1956.11,-128.8 1946.11,-125.3 1946.11,-132.3"/>
</g>
<!-- SocialMediaComponent -->
<g id="node16" class="node">
<title>SocialMediaComponent</title>
<polygon fill="#ffffb3" stroke="black" points="1149.09,-84.8 996.91,-84.8 996.91,-48.8 1149.09,-48.8 1149.09,-84.8"/>
<text text-anchor="middle" x="1073" y="-62.6" font-family="Times,serif" font-size="14.00">SocialMediaComponent</text>
</g>
<!-- SocialMediaComponent&#45;&gt;AppModule -->
<g id="edge16" class="edge">
<title>SocialMediaComponent&#45;&gt;AppModule</title>
<path fill="none" stroke="black" d="M1073,-84.91C1073,-104.14 1073,-131.8 1073,-131.8 1073,-131.8 1946.15,-131.8 1946.15,-131.8"/>
<polygon fill="black" stroke="black" points="1946.15,-135.3 1956.15,-131.8 1946.15,-128.3 1946.15,-135.3"/>
</g>
<!-- TrendingActorsComponent -->
<g id="node17" class="node">
<title>TrendingActorsComponent</title>
<polygon fill="#ffffb3" stroke="black" points="978.97,-84.8 809.03,-84.8 809.03,-48.8 978.97,-48.8 978.97,-84.8"/>
<text text-anchor="middle" x="894" y="-62.6" font-family="Times,serif" font-size="14.00">TrendingActorsComponent</text>
</g>
<!-- TrendingActorsComponent&#45;&gt;AppModule -->
<g id="edge17" class="edge">
<title>TrendingActorsComponent&#45;&gt;AppModule</title>
<path fill="none" stroke="black" d="M894,-85.02C894,-105.17 894,-134.8 894,-134.8 894,-134.8 1946.07,-134.8 1946.07,-134.8"/>
<polygon fill="black" stroke="black" points="1946.07,-138.3 1956.07,-134.8 1946.07,-131.3 1946.07,-138.3"/>
</g>
<!-- TrendingComponent -->
<g id="node18" class="node">
<title>TrendingComponent</title>
<polygon fill="#ffffb3" stroke="black" points="791.15,-84.8 658.85,-84.8 658.85,-48.8 791.15,-48.8 791.15,-84.8"/>
<text text-anchor="middle" x="725" y="-62.6" font-family="Times,serif" font-size="14.00">TrendingComponent</text>
</g>
<!-- TrendingComponent&#45;&gt;AppModule -->
<g id="edge18" class="edge">
<title>TrendingComponent&#45;&gt;AppModule</title>
<path fill="none" stroke="black" d="M725,-85.08C725,-106.12 725,-137.8 725,-137.8 725,-137.8 1946.01,-137.8 1946.01,-137.8"/>
<polygon fill="black" stroke="black" points="1946.01,-141.3 1956.01,-137.8 1946.01,-134.3 1946.01,-141.3"/>
</g>
<!-- TrendingMoviesComponent -->
<g id="node19" class="node">
<title>TrendingMoviesComponent</title>
<polygon fill="#ffffb3" stroke="black" points="640.15,-84.8 465.85,-84.8 465.85,-48.8 640.15,-48.8 640.15,-84.8"/>
<text text-anchor="middle" x="553" y="-62.6" font-family="Times,serif" font-size="14.00">TrendingMoviesComponent</text>
</g>
<!-- TrendingMoviesComponent&#45;&gt;AppModule -->
<g id="edge19" class="edge">
<title>TrendingMoviesComponent&#45;&gt;AppModule</title>
<path fill="none" stroke="black" d="M553,-85.09C553,-107.01 553,-140.8 553,-140.8 553,-140.8 1946.31,-140.8 1946.31,-140.8"/>
<polygon fill="black" stroke="black" points="1946.31,-144.3 1956.31,-140.8 1946.31,-137.3 1946.31,-144.3"/>
</g>
<!-- TrendingTvShowDetailsComponent -->
<g id="node20" class="node">
<title>TrendingTvShowDetailsComponent</title>
<polygon fill="#ffffb3" stroke="black" points="447.74,-84.8 228.26,-84.8 228.26,-48.8 447.74,-48.8 447.74,-84.8"/>
<text text-anchor="middle" x="338" y="-62.6" font-family="Times,serif" font-size="14.00">TrendingTvShowDetailsComponent</text>
</g>
<!-- TrendingTvShowDetailsComponent&#45;&gt;AppModule -->
<g id="edge20" class="edge">
<title>TrendingTvShowDetailsComponent&#45;&gt;AppModule</title>
<path fill="none" stroke="black" d="M338,-85.05C338,-107.82 338,-143.8 338,-143.8 338,-143.8 1946.14,-143.8 1946.14,-143.8"/>
<polygon fill="black" stroke="black" points="1946.14,-147.3 1956.14,-143.8 1946.14,-140.3 1946.14,-147.3"/>
</g>
<!-- TrendingTvShowsComponent -->
<g id="node21" class="node">
<title>TrendingTvShowsComponent</title>
<polygon fill="#ffffb3" stroke="black" points="209.54,-84.8 24.46,-84.8 24.46,-48.8 209.54,-48.8 209.54,-84.8"/>
<text text-anchor="middle" x="117" y="-62.6" font-family="Times,serif" font-size="14.00">TrendingTvShowsComponent</text>
</g>
<!-- TrendingTvShowsComponent&#45;&gt;AppModule -->
<g id="edge21" class="edge">
<title>TrendingTvShowsComponent&#45;&gt;AppModule</title>
<path fill="none" stroke="black" d="M117,-84.95C117,-108.56 117,-146.8 117,-146.8 117,-146.8 1946.08,-146.8 1946.08,-146.8"/>
<polygon fill="black" stroke="black" points="1946.08,-150.3 1956.08,-146.8 1946.08,-143.3 1946.08,-150.3"/>
</g>
<!-- AppComponent  -->
<g id="node24" class="node">
<title>AppComponent </title>
<polygon fill="#80b1d3" stroke="black" points="2052.44,-214.8 1943.56,-214.8 1943.56,-178.8 2052.44,-178.8 2052.44,-214.8"/>
<text text-anchor="middle" x="1998" y="-192.6" font-family="Times,serif" font-size="14.00">AppComponent </text>
</g>
<!-- AppModule&#45;&gt;AppComponent  -->
<g id="edge23" class="edge">
<title>AppModule&#45;&gt;AppComponent </title>
<path fill="none" stroke="black" stroke-dasharray="1,5" d="M1998,-149.91C1998,-149.91 1998,-168.79 1998,-168.79"/>
<polygon fill="black" stroke="black" points="1994.5,-168.79 1998,-178.79 2001.5,-168.79 1994.5,-168.79"/>
</g>
<!-- AppRoutingModule -->
<g id="node23" class="node">
<title>AppRoutingModule</title>
<polygon fill="#8dd3c7" stroke="black" points="3607.27,-84.8 3604.27,-88.8 3583.27,-88.8 3580.27,-84.8 3478.73,-84.8 3478.73,-48.8 3607.27,-48.8 3607.27,-84.8"/>
<text text-anchor="middle" x="3543" y="-62.6" font-family="Times,serif" font-size="14.00">AppRoutingModule</text>
</g>
<!-- AppRoutingModule&#45;&gt;AppModule -->
<g id="edge22" class="edge">
<title>AppRoutingModule&#45;&gt;AppModule</title>
<path fill="none" stroke="black" d="M3543,-85.05C3543,-107.82 3543,-143.8 3543,-143.8 3543,-143.8 2049.72,-143.8 2049.72,-143.8"/>
<polygon fill="black" stroke="black" points="2049.72,-140.3 2039.72,-143.8 2049.72,-147.3 2049.72,-140.3"/>
</g>
<!-- NavbarService -->
<g id="node25" class="node">
<title>NavbarService</title>
<ellipse fill="#fdb462" stroke="black" cx="3699" cy="-66.8" rx="68.32" ry="18"/>
<text text-anchor="middle" x="3699" y="-62.6" font-family="Times,serif" font-size="14.00">NavbarService</text>
</g>
<!-- NavbarService&#45;&gt;AppModule -->
<g id="edge24" class="edge">
<title>NavbarService&#45;&gt;AppModule</title>
<path fill="none" stroke="black" d="M3699,-84.95C3699,-108.56 3699,-146.8 3699,-146.8 3699,-146.8 2050.05,-146.8 2050.05,-146.8"/>
<polygon fill="black" stroke="black" points="2050.05,-143.3 2040.05,-146.8 2050.05,-150.3 2050.05,-143.3"/>
</g>
</g>
</svg>
